<svg width="37" height="36" viewBox="0 0 37 36" fill="none" xmlns="http://www.w3.org/2000/svg">
<path fill-rule="evenodd" clip-rule="evenodd" d="M26.3224 19.625H13.2849L11.3599 23.125H32.3599V26.625H11.3599C8.69986 26.625 7.01986 23.7725 8.29736 21.4275L10.6599 17.1575L4.35986 3.875H0.859863V0.375H6.58236L14.0374 16.125H26.3224L33.0949 3.875L36.1399 5.555L29.3849 17.8225C28.7899 18.9075 27.6349 19.625 26.3224 19.625ZM11.3599 28.375C9.43488 28.375 7.87738 29.95 7.87738 31.875C7.87738 33.8 9.43488 35.375 11.3599 35.375C13.2849 35.375 14.8599 33.8 14.8599 31.875C14.8599 29.95 13.2849 28.375 11.3599 28.375ZM28.8599 28.375C26.9349 28.375 25.3774 29.95 25.3774 31.875C25.3774 33.8 26.9349 35.375 28.8599 35.375C30.7849 35.375 32.3599 33.8 32.3599 31.875C32.3599 29.95 30.7849 28.375 28.8599 28.375Z" fill="#F37B36"/>
</svg>
