<svg width="22" height="22" viewBox="0 0 22 22" fill="currentColor" xmlns="http://www.w3.org/2000/svg">
<path d="M1.131 17.2635L0.984553 17.4099L0.984553 17.617L0.984553 20.4454L0.984553 20.9454L1.48455 20.9454L4.31298 20.9454L4.52009 20.9454L4.66653 20.799L16.6873 8.77817L17.0409 8.42462L16.6873 8.07107L13.8589 5.24264L13.5054 4.88909L13.1518 5.24264L1.131 17.2635ZM18.1016 6.65685L18.4551 7.01041L18.8087 6.65685L20.5764 4.88909C20.7509 4.71466 20.9552 4.41147 21.0169 4.03251C21.0836 3.62254 20.9745 3.16584 20.5764 2.76777L19.1622 1.35355C19.0845 1.27585 18.9696 1.19846 18.8515 1.13595C18.7249 1.06893 18.5605 1.00078 18.3717 0.961379C17.982 0.880045 17.4715 0.923218 17.041 1.35364C17.041 1.35364 17.041 1.35365 17.041 1.35366L15.2732 3.1213L14.9196 3.47485L15.2731 3.82843L18.1016 6.65685Z" fill="currentColor" stroke="currentColor"/>
</svg>
